<mxfile host="app.diagrams.net" modified="2023-05-24T18:28:25.576Z" agent="Mozilla/5.0 (Windows NT 10.0; Win64; x64) AppleWebKit/537.36 (KHTML, like Gecko) Chrome/113.0.0.0 Safari/537.36   " etag="U4mpEMGAcUpz7NQ72Xql" version="21.3.3" type="google">
  <diagram id="Li2DeV28C_-uFzdzg9Yu" name="Page-2">
    <mxGraphModel grid="1" page="1" gridSize="10" guides="1" tooltips="1" connect="1" arrows="1" fold="1" pageScale="1" pageWidth="827" pageHeight="1169" math="0" shadow="0">
      <root>
        <mxCell id="0" />
        <mxCell id="1" parent="0" />
        <mxCell id="3wXsOCrLReDDAwC00x1a-3" value="" style="edgeStyle=orthogonalEdgeStyle;rounded=0;orthogonalLoop=1;jettySize=auto;html=1;" edge="1" parent="1" source="TTi5IOq-VXRyMKPRVyuo-1" target="3wXsOCrLReDDAwC00x1a-1">
          <mxGeometry relative="1" as="geometry" />
        </mxCell>
        <mxCell id="TTi5IOq-VXRyMKPRVyuo-1" value="Αρχικοποίηση των LEDs, TCA, PIN5 και PIN6 του PortF, ADC και PWM" style="rounded=1;whiteSpace=wrap;html=1;fontSize=12;glass=0;strokeWidth=1;shadow=0;" vertex="1" parent="1">
          <mxGeometry x="270" y="265" width="140" height="65" as="geometry" />
        </mxCell>
        <mxCell id="TTi5IOq-VXRyMKPRVyuo-2" style="edgeStyle=orthogonalEdgeStyle;rounded=0;orthogonalLoop=1;jettySize=auto;html=1;entryX=0.5;entryY=1;entryDx=0;entryDy=0;" edge="1" parent="1" source="TTi5IOq-VXRyMKPRVyuo-3" target="TTi5IOq-VXRyMKPRVyuo-1">
          <mxGeometry relative="1" as="geometry" />
        </mxCell>
        <mxCell id="TTi5IOq-VXRyMKPRVyuo-3" value="Start" style="ellipse;whiteSpace=wrap;html=1;" vertex="1" parent="1">
          <mxGeometry x="305" y="365" width="70" height="70" as="geometry" />
        </mxCell>
        <mxCell id="TTi5IOq-VXRyMKPRVyuo-4" value="&lt;div&gt;alarm_count=0&lt;/div&gt;&lt;div&gt;alarm_mode=0&lt;/div&gt;&lt;div&gt;timer_mode=0&lt;/div&gt;&lt;div&gt;alarm_brake=0&lt;/div&gt;&lt;div&gt;alarm_pass=0&lt;br&gt;&lt;/div&gt;" style="text;html=1;align=center;verticalAlign=middle;resizable=0;points=[];autosize=1;strokeColor=none;fillColor=none;" vertex="1" parent="1">
          <mxGeometry x="375" y="355" width="110" height="90" as="geometry" />
        </mxCell>
        <mxCell id="3wXsOCrLReDDAwC00x1a-1" value="while(1)" style="rhombus;whiteSpace=wrap;html=1;shadow=0;fontFamily=Helvetica;fontSize=12;align=center;strokeWidth=1;spacing=6;spacingTop=-4;" vertex="1" parent="1">
          <mxGeometry x="300" y="150.01" width="80" height="75" as="geometry" />
        </mxCell>
        <mxCell id="3wXsOCrLReDDAwC00x1a-2" value="" style="endArrow=classic;html=1;rounded=0;exitX=0.5;exitY=0;exitDx=0;exitDy=0;entryX=0.063;entryY=0.413;entryDx=0;entryDy=0;entryPerimeter=0;" edge="1" parent="1" source="3wXsOCrLReDDAwC00x1a-1" target="3wXsOCrLReDDAwC00x1a-1">
          <mxGeometry width="50" height="50" relative="1" as="geometry">
            <mxPoint x="330" y="74.5" as="sourcePoint" />
            <mxPoint x="290" y="35" as="targetPoint" />
            <Array as="points">
              <mxPoint x="340" y="130" />
              <mxPoint x="310" y="130" />
              <mxPoint x="280" y="130" />
              <mxPoint x="280" y="181" />
            </Array>
          </mxGeometry>
        </mxCell>
        <mxCell id="3g2rSWJbwLkaJ6yUTPUB-1" value="" style="endArrow=classic;html=1;rounded=0;dashed=1;exitX=1;exitY=0.5;exitDx=0;exitDy=0;edgeStyle=orthogonalEdgeStyle;" edge="1" parent="1" source="3wXsOCrLReDDAwC00x1a-1">
          <mxGeometry width="50" height="50" relative="1" as="geometry">
            <mxPoint x="340" y="165" as="sourcePoint" />
            <mxPoint x="420" y="187.5" as="targetPoint" />
          </mxGeometry>
        </mxCell>
        <mxCell id="3g2rSWJbwLkaJ6yUTPUB-2" value="&lt;div&gt;Ενεργοποίηση PIN5 ή PIN6 του PORTF&lt;br&gt;&lt;/div&gt;&lt;div&gt;(πάτημα διακόπτη)&lt;br&gt;&lt;/div&gt;" style="shape=parallelogram;perimeter=parallelogramPerimeter;whiteSpace=wrap;html=1;fixedSize=1;" vertex="1" parent="1">
          <mxGeometry x="410" y="157.5" width="140" height="60" as="geometry" />
        </mxCell>
        <mxCell id="sBidsLhLrEdhnD-UOyox-1" style="edgeStyle=orthogonalEdgeStyle;rounded=0;orthogonalLoop=1;jettySize=auto;html=1;strokeColor=#FF0000;" edge="1" parent="1">
          <mxGeometry relative="1" as="geometry">
            <mxPoint x="730" y="185" as="targetPoint" />
            <Array as="points">
              <mxPoint x="690" y="185" />
              <mxPoint x="690" y="185" />
            </Array>
            <mxPoint x="540" y="185" as="sourcePoint" />
          </mxGeometry>
        </mxCell>
        <mxCell id="sBidsLhLrEdhnD-UOyox-2" value="ISR&amp;nbsp; PORTF_PORT interrupt" style="text;html=1;align=center;verticalAlign=middle;resizable=0;points=[];autosize=1;strokeColor=none;fillColor=none;" vertex="1" parent="1">
          <mxGeometry x="550" y="155" width="180" height="30" as="geometry" />
        </mxCell>
        <mxCell id="O0b2YWbGyJtg1IKZJ1Sa-6" value="" style="edgeStyle=orthogonalEdgeStyle;rounded=0;orthogonalLoop=1;jettySize=auto;html=1;" edge="1" parent="1" source="O0b2YWbGyJtg1IKZJ1Sa-2" target="O0b2YWbGyJtg1IKZJ1Sa-5">
          <mxGeometry relative="1" as="geometry" />
        </mxCell>
        <mxCell id="O0b2YWbGyJtg1IKZJ1Sa-11" style="edgeStyle=orthogonalEdgeStyle;rounded=0;orthogonalLoop=1;jettySize=auto;html=1;" edge="1" parent="1" source="O0b2YWbGyJtg1IKZJ1Sa-2">
          <mxGeometry relative="1" as="geometry">
            <mxPoint x="950.0051282051281" y="187.5050000000001" as="targetPoint" />
          </mxGeometry>
        </mxCell>
        <mxCell id="O0b2YWbGyJtg1IKZJ1Sa-2" value="alarm_mode==?" style="rhombus;whiteSpace=wrap;html=1;" vertex="1" parent="1">
          <mxGeometry x="730" y="131.88" width="110" height="111.25" as="geometry" />
        </mxCell>
        <mxCell id="O0b2YWbGyJtg1IKZJ1Sa-18" style="edgeStyle=orthogonalEdgeStyle;rounded=0;orthogonalLoop=1;jettySize=auto;html=1;" edge="1" parent="1" source="O0b2YWbGyJtg1IKZJ1Sa-5" target="O0b2YWbGyJtg1IKZJ1Sa-17">
          <mxGeometry relative="1" as="geometry">
            <Array as="points">
              <mxPoint x="785" y="-30" />
            </Array>
          </mxGeometry>
        </mxCell>
        <mxCell id="WWIkTGy5c-19QkhTnD-r-4" style="edgeStyle=orthogonalEdgeStyle;rounded=0;orthogonalLoop=1;jettySize=auto;html=1;" edge="1" parent="1" source="O0b2YWbGyJtg1IKZJ1Sa-5" target="WWIkTGy5c-19QkhTnD-r-3">
          <mxGeometry relative="1" as="geometry" />
        </mxCell>
        <mxCell id="WWIkTGy5c-19QkhTnD-r-16" style="edgeStyle=orthogonalEdgeStyle;rounded=0;orthogonalLoop=1;jettySize=auto;html=1;exitX=1;exitY=0;exitDx=0;exitDy=0;" edge="1" parent="1" source="O0b2YWbGyJtg1IKZJ1Sa-5" target="voISJOFp0THEIVLKITZV-1">
          <mxGeometry relative="1" as="geometry">
            <mxPoint x="830" y="-97.38636363636374" as="targetPoint" />
            <Array as="points">
              <mxPoint x="830" y="4" />
            </Array>
          </mxGeometry>
        </mxCell>
        <mxCell id="O0b2YWbGyJtg1IKZJ1Sa-5" value="correct_pass==?" style="rhombus;whiteSpace=wrap;html=1;" vertex="1" parent="1">
          <mxGeometry x="730" y="-22.5" width="110" height="107.5" as="geometry" />
        </mxCell>
        <mxCell id="O0b2YWbGyJtg1IKZJ1Sa-8" value="enabling()" style="text;html=1;align=center;verticalAlign=middle;resizable=0;points=[];autosize=1;strokeColor=none;fillColor=none;" vertex="1" parent="1">
          <mxGeometry x="780" y="101.88" width="80" height="30" as="geometry" />
        </mxCell>
        <mxCell id="O0b2YWbGyJtg1IKZJ1Sa-12" value="alarm_mode==1" style="text;html=1;align=center;verticalAlign=middle;resizable=0;points=[];autosize=1;strokeColor=none;fillColor=none;" vertex="1" parent="1">
          <mxGeometry x="825" y="190" width="120" height="30" as="geometry" />
        </mxCell>
        <mxCell id="O0b2YWbGyJtg1IKZJ1Sa-13" value="disabling()" style="text;html=1;align=center;verticalAlign=middle;resizable=0;points=[];autosize=1;strokeColor=none;fillColor=none;" vertex="1" parent="1">
          <mxGeometry x="845" y="155" width="80" height="30" as="geometry" />
        </mxCell>
        <mxCell id="O0b2YWbGyJtg1IKZJ1Sa-14" value="alarm_mode=0" style="text;html=1;align=center;verticalAlign=middle;resizable=0;points=[];autosize=1;strokeColor=none;fillColor=none;" vertex="1" parent="1">
          <mxGeometry x="685" y="101.88" width="110" height="30" as="geometry" />
        </mxCell>
        <mxCell id="O0b2YWbGyJtg1IKZJ1Sa-21" style="edgeStyle=orthogonalEdgeStyle;rounded=0;orthogonalLoop=1;jettySize=auto;html=1;" edge="1" parent="1" source="O0b2YWbGyJtg1IKZJ1Sa-17">
          <mxGeometry relative="1" as="geometry">
            <mxPoint x="610" y="-132.5" as="targetPoint" />
          </mxGeometry>
        </mxCell>
        <mxCell id="O0b2YWbGyJtg1IKZJ1Sa-24" style="edgeStyle=orthogonalEdgeStyle;rounded=0;orthogonalLoop=1;jettySize=auto;html=1;" edge="1" parent="1" source="O0b2YWbGyJtg1IKZJ1Sa-17">
          <mxGeometry relative="1" as="geometry">
            <mxPoint x="490" y="-26.25" as="targetPoint" />
          </mxGeometry>
        </mxCell>
        <mxCell id="O0b2YWbGyJtg1IKZJ1Sa-17" value="&lt;div&gt;(pin5on == PORTF.FLAGS) or&lt;/div&gt;&lt;div&gt;(pin56on == PORTF.FLAGS)?&lt;/div&gt;" style="rhombus;whiteSpace=wrap;html=1;" vertex="1" parent="1">
          <mxGeometry x="555" y="-80" width="110" height="107.5" as="geometry" />
        </mxCell>
        <mxCell id="O0b2YWbGyJtg1IKZJ1Sa-19" value="&lt;div&gt;correct_pass==0 or&lt;/div&gt;&lt;div&gt;correct_pass==2&lt;/div&gt;" style="text;html=1;align=center;verticalAlign=middle;resizable=0;points=[];autosize=1;strokeColor=none;fillColor=none;" vertex="1" parent="1">
          <mxGeometry x="655" y="-77" width="130" height="40" as="geometry" />
        </mxCell>
        <mxCell id="O0b2YWbGyJtg1IKZJ1Sa-22" value="yes" style="text;html=1;align=center;verticalAlign=middle;resizable=0;points=[];autosize=1;strokeColor=none;fillColor=none;" vertex="1" parent="1">
          <mxGeometry x="610" y="-102" width="40" height="30" as="geometry" />
        </mxCell>
        <mxCell id="O0b2YWbGyJtg1IKZJ1Sa-25" value="no" style="text;html=1;align=center;verticalAlign=middle;resizable=0;points=[];autosize=1;strokeColor=none;fillColor=none;" vertex="1" parent="1">
          <mxGeometry x="515" y="-52.5" width="40" height="30" as="geometry" />
        </mxCell>
        <mxCell id="WWIkTGy5c-19QkhTnD-r-1" value="&lt;div&gt;correct_pass++&lt;/div&gt;&lt;div&gt;y = pin5on&lt;/div&gt;&lt;div&gt;PORTF.INTFLAGS=y&lt;br&gt;&lt;/div&gt;" style="rounded=1;whiteSpace=wrap;html=1;" vertex="1" parent="1">
          <mxGeometry x="550" y="-190" width="120" height="60" as="geometry" />
        </mxCell>
        <mxCell id="WWIkTGy5c-19QkhTnD-r-2" value="&lt;div&gt;correct_pass=0&lt;/div&gt;&lt;div&gt;y = PORTF.INTFLAGS&lt;br&gt;&lt;/div&gt;&lt;div&gt;PORTF.INTFLAGS=y&lt;br&gt;&lt;/div&gt;" style="rounded=1;whiteSpace=wrap;html=1;" vertex="1" parent="1">
          <mxGeometry x="1150" y="1.25" width="120" height="60" as="geometry" />
        </mxCell>
        <mxCell id="WWIkTGy5c-19QkhTnD-r-12" value="" style="edgeStyle=orthogonalEdgeStyle;rounded=0;orthogonalLoop=1;jettySize=auto;html=1;" edge="1" parent="1" source="WWIkTGy5c-19QkhTnD-r-3" target="WWIkTGy5c-19QkhTnD-r-2">
          <mxGeometry relative="1" as="geometry" />
        </mxCell>
        <mxCell id="WWIkTGy5c-19QkhTnD-r-3" value="pin6on == PORTF.INTFLAGS ?" style="rhombus;whiteSpace=wrap;html=1;" vertex="1" parent="1">
          <mxGeometry x="980" y="-22.5" width="110" height="107.5" as="geometry" />
        </mxCell>
        <mxCell id="WWIkTGy5c-19QkhTnD-r-5" value="&lt;div&gt;correct_pass==1 or&lt;/div&gt;&lt;div&gt;correct_pass==3&lt;/div&gt;" style="text;html=1;align=center;verticalAlign=middle;resizable=0;points=[];autosize=1;strokeColor=none;fillColor=none;" vertex="1" parent="1">
          <mxGeometry x="840" y="-12.5" width="130" height="40" as="geometry" />
        </mxCell>
        <mxCell id="WWIkTGy5c-19QkhTnD-r-6" value="&lt;div&gt;correct_pass++&lt;/div&gt;&lt;div&gt;y = pin6on&lt;/div&gt;&lt;div&gt;PORTF.INTFLAGS=y&lt;br&gt;&lt;/div&gt;" style="rounded=1;whiteSpace=wrap;html=1;" vertex="1" parent="1">
          <mxGeometry x="975" y="-140.5" width="120" height="60" as="geometry" />
        </mxCell>
        <mxCell id="WWIkTGy5c-19QkhTnD-r-7" style="edgeStyle=orthogonalEdgeStyle;rounded=0;orthogonalLoop=1;jettySize=auto;html=1;" edge="1" parent="1">
          <mxGeometry relative="1" as="geometry">
            <mxPoint x="1035" y="-24.5" as="sourcePoint" />
            <mxPoint x="1035" y="-77" as="targetPoint" />
          </mxGeometry>
        </mxCell>
        <mxCell id="WWIkTGy5c-19QkhTnD-r-8" value="yes" style="text;html=1;align=center;verticalAlign=middle;resizable=0;points=[];autosize=1;strokeColor=none;fillColor=none;" vertex="1" parent="1">
          <mxGeometry x="1035" y="-52.5" width="40" height="30" as="geometry" />
        </mxCell>
        <mxCell id="WWIkTGy5c-19QkhTnD-r-13" value="no" style="text;html=1;align=center;verticalAlign=middle;resizable=0;points=[];autosize=1;strokeColor=none;fillColor=none;" vertex="1" parent="1">
          <mxGeometry x="1100" y="-2" width="40" height="30" as="geometry" />
        </mxCell>
        <mxCell id="WWIkTGy5c-19QkhTnD-r-14" value="&lt;div&gt;correct_pass=0&lt;/div&gt;&lt;div&gt;y = PORTF.INTFLAGS&lt;br&gt;&lt;/div&gt;&lt;div&gt;PORTF.INTFLAGS=y&lt;br&gt;&lt;/div&gt;" style="rounded=1;whiteSpace=wrap;html=1;" vertex="1" parent="1">
          <mxGeometry x="370" y="-56.25" width="120" height="60" as="geometry" />
        </mxCell>
        <mxCell id="WWIkTGy5c-19QkhTnD-r-17" value="&lt;div&gt;correct_pass==4&lt;br&gt;&lt;/div&gt;" style="text;html=1;align=center;verticalAlign=middle;resizable=0;points=[];autosize=1;strokeColor=none;fillColor=none;" vertex="1" parent="1">
          <mxGeometry x="827" y="-67" width="120" height="30" as="geometry" />
        </mxCell>
        <mxCell id="hmbJ3uCrHt5LTzU4CBXK-4" style="edgeStyle=orthogonalEdgeStyle;rounded=0;orthogonalLoop=1;jettySize=auto;html=1;" edge="1" parent="1" source="hmbJ3uCrHt5LTzU4CBXK-2">
          <mxGeometry relative="1" as="geometry">
            <mxPoint x="1120" y="188" as="targetPoint" />
          </mxGeometry>
        </mxCell>
        <mxCell id="voISJOFp0THEIVLKITZV-14" style="edgeStyle=orthogonalEdgeStyle;rounded=0;orthogonalLoop=1;jettySize=auto;html=1;entryX=0.5;entryY=0;entryDx=0;entryDy=0;" edge="1" parent="1" source="hmbJ3uCrHt5LTzU4CBXK-2" target="voISJOFp0THEIVLKITZV-16">
          <mxGeometry relative="1" as="geometry">
            <mxPoint x="1002" y="276" as="targetPoint" />
          </mxGeometry>
        </mxCell>
        <mxCell id="hmbJ3uCrHt5LTzU4CBXK-2" value="alarm_count==3?" style="rhombus;whiteSpace=wrap;html=1;" vertex="1" parent="1">
          <mxGeometry x="947" y="133.76" width="110" height="107.5" as="geometry" />
        </mxCell>
        <mxCell id="hmbJ3uCrHt5LTzU4CBXK-5" value="yes" style="text;html=1;align=center;verticalAlign=middle;resizable=0;points=[];autosize=1;strokeColor=none;fillColor=none;" vertex="1" parent="1">
          <mxGeometry x="1060" y="155" width="40" height="30" as="geometry" />
        </mxCell>
        <mxCell id="hmbJ3uCrHt5LTzU4CBXK-6" value="alarm()" style="text;html=1;align=center;verticalAlign=middle;resizable=0;points=[];autosize=1;strokeColor=none;fillColor=none;" vertex="1" parent="1">
          <mxGeometry x="1057" y="185" width="60" height="30" as="geometry" />
        </mxCell>
        <mxCell id="EWJB-UFnRw7Wubc8X8zB-13" style="edgeStyle=orthogonalEdgeStyle;rounded=0;orthogonalLoop=1;jettySize=auto;html=1;" edge="1" parent="1" source="hmbJ3uCrHt5LTzU4CBXK-7" target="EWJB-UFnRw7Wubc8X8zB-12">
          <mxGeometry relative="1" as="geometry" />
        </mxCell>
        <mxCell id="hmbJ3uCrHt5LTzU4CBXK-7" value="&lt;div&gt;alarm_brake=0&lt;/div&gt;&lt;div&gt;alarm_count++&lt;/div&gt;&lt;div&gt;timer_mode=1&lt;br&gt;&lt;/div&gt;" style="rounded=1;whiteSpace=wrap;html=1;" vertex="1" parent="1">
          <mxGeometry x="1121" y="155" width="120" height="60" as="geometry" />
        </mxCell>
        <mxCell id="voISJOFp0THEIVLKITZV-45" value="" style="edgeStyle=orthogonalEdgeStyle;rounded=0;orthogonalLoop=1;jettySize=auto;html=1;" edge="1" parent="1" source="voISJOFp0THEIVLKITZV-1" target="voISJOFp0THEIVLKITZV-44">
          <mxGeometry relative="1" as="geometry" />
        </mxCell>
        <mxCell id="voISJOFp0THEIVLKITZV-1" value="&lt;div&gt;correct_pass=0&lt;/div&gt;&lt;div&gt;ενεργοποίηση TCA0 single mode&lt;/div&gt;" style="rounded=1;whiteSpace=wrap;html=1;" vertex="1" parent="1">
          <mxGeometry x="770" y="-162" width="120" height="60" as="geometry" />
        </mxCell>
        <mxCell id="voISJOFp0THEIVLKITZV-3" value="correct_pass==?" style="rhombus;whiteSpace=wrap;html=1;" vertex="1" parent="1">
          <mxGeometry x="730" y="-22" width="110" height="107.5" as="geometry" />
        </mxCell>
        <mxCell id="voISJOFp0THEIVLKITZV-4" value="&lt;div&gt;(pin5on == PORTF.FLAGS) or&lt;/div&gt;&lt;div&gt;(pin56on == PORTF.FLAGS)?&lt;/div&gt;" style="rhombus;whiteSpace=wrap;html=1;" vertex="1" parent="1">
          <mxGeometry x="555" y="-79.5" width="110" height="107.5" as="geometry" />
        </mxCell>
        <mxCell id="voISJOFp0THEIVLKITZV-5" style="edgeStyle=orthogonalEdgeStyle;rounded=0;orthogonalLoop=1;jettySize=auto;html=1;" edge="1" parent="1" source="voISJOFp0THEIVLKITZV-3" target="voISJOFp0THEIVLKITZV-4">
          <mxGeometry relative="1" as="geometry">
            <Array as="points">
              <mxPoint x="785" y="-29.5" />
            </Array>
          </mxGeometry>
        </mxCell>
        <mxCell id="voISJOFp0THEIVLKITZV-7" style="edgeStyle=orthogonalEdgeStyle;rounded=0;orthogonalLoop=1;jettySize=auto;html=1;" edge="1" parent="1" source="voISJOFp0THEIVLKITZV-4">
          <mxGeometry relative="1" as="geometry">
            <mxPoint x="610" y="-132" as="targetPoint" />
          </mxGeometry>
        </mxCell>
        <mxCell id="voISJOFp0THEIVLKITZV-8" value="yes" style="text;html=1;align=center;verticalAlign=middle;resizable=0;points=[];autosize=1;strokeColor=none;fillColor=none;" vertex="1" parent="1">
          <mxGeometry x="610" y="-101.5" width="40" height="30" as="geometry" />
        </mxCell>
        <mxCell id="voISJOFp0THEIVLKITZV-9" value="&lt;div&gt;correct_pass++&lt;/div&gt;&lt;div&gt;y = pin5on&lt;/div&gt;&lt;div&gt;PORTF.INTFLAGS=y&lt;br&gt;&lt;/div&gt;" style="rounded=1;whiteSpace=wrap;html=1;" vertex="1" parent="1">
          <mxGeometry x="550" y="-189.5" width="120" height="60" as="geometry" />
        </mxCell>
        <mxCell id="voISJOFp0THEIVLKITZV-10" value="no" style="text;html=1;align=center;verticalAlign=middle;resizable=0;points=[];autosize=1;strokeColor=none;fillColor=none;" vertex="1" parent="1">
          <mxGeometry x="515" y="-52" width="40" height="30" as="geometry" />
        </mxCell>
        <mxCell id="voISJOFp0THEIVLKITZV-15" value="no" style="text;html=1;align=center;verticalAlign=middle;resizable=0;points=[];autosize=1;strokeColor=none;fillColor=none;" vertex="1" parent="1">
          <mxGeometry x="1000" y="241.26" width="40" height="30" as="geometry" />
        </mxCell>
        <mxCell id="voISJOFp0THEIVLKITZV-33" style="edgeStyle=orthogonalEdgeStyle;rounded=0;orthogonalLoop=1;jettySize=auto;html=1;entryX=1;entryY=0.5;entryDx=0;entryDy=0;" edge="1" parent="1" source="voISJOFp0THEIVLKITZV-16" target="voISJOFp0THEIVLKITZV-35">
          <mxGeometry relative="1" as="geometry">
            <mxPoint x="820" y="334" as="targetPoint" />
          </mxGeometry>
        </mxCell>
        <mxCell id="voISJOFp0THEIVLKITZV-43" value="" style="edgeStyle=orthogonalEdgeStyle;rounded=0;orthogonalLoop=1;jettySize=auto;html=1;" edge="1" parent="1" source="voISJOFp0THEIVLKITZV-16" target="voISJOFp0THEIVLKITZV-42">
          <mxGeometry relative="1" as="geometry" />
        </mxCell>
        <mxCell id="voISJOFp0THEIVLKITZV-16" value="correct_pass==?" style="rhombus;whiteSpace=wrap;html=1;" vertex="1" parent="1">
          <mxGeometry x="947" y="280" width="110" height="107.5" as="geometry" />
        </mxCell>
        <mxCell id="voISJOFp0THEIVLKITZV-17" style="edgeStyle=orthogonalEdgeStyle;rounded=0;orthogonalLoop=1;jettySize=auto;html=1;" edge="1" parent="1">
          <mxGeometry relative="1" as="geometry">
            <mxPoint x="1057" y="333.25" as="sourcePoint" />
            <mxPoint x="1197" y="333.25" as="targetPoint" />
          </mxGeometry>
        </mxCell>
        <mxCell id="voISJOFp0THEIVLKITZV-18" value="&lt;div&gt;correct_pass==1 or&lt;/div&gt;&lt;div&gt;correct_pass==3&lt;/div&gt;" style="text;html=1;align=center;verticalAlign=middle;resizable=0;points=[];autosize=1;strokeColor=none;fillColor=none;" vertex="1" parent="1">
          <mxGeometry x="1050" y="290" width="130" height="40" as="geometry" />
        </mxCell>
        <mxCell id="voISJOFp0THEIVLKITZV-27" value="" style="edgeStyle=orthogonalEdgeStyle;rounded=0;orthogonalLoop=1;jettySize=auto;html=1;" edge="1" parent="1" source="voISJOFp0THEIVLKITZV-19" target="voISJOFp0THEIVLKITZV-22">
          <mxGeometry relative="1" as="geometry" />
        </mxCell>
        <mxCell id="voISJOFp0THEIVLKITZV-19" value="pin6on == PORTF.INTFLAGS ?" style="rhombus;whiteSpace=wrap;html=1;" vertex="1" parent="1">
          <mxGeometry x="1200" y="280" width="110" height="107.5" as="geometry" />
        </mxCell>
        <mxCell id="voISJOFp0THEIVLKITZV-20" value="yes" style="text;html=1;align=center;verticalAlign=middle;resizable=0;points=[];autosize=1;strokeColor=none;fillColor=none;" vertex="1" parent="1">
          <mxGeometry x="1260" y="385" width="40" height="30" as="geometry" />
        </mxCell>
        <mxCell id="voISJOFp0THEIVLKITZV-22" value="&lt;div&gt;correct_pass++&lt;/div&gt;&lt;div&gt;y = pin6on&lt;/div&gt;&lt;div&gt;PORTF.INTFLAGS=y&lt;br&gt;&lt;/div&gt;" style="rounded=1;whiteSpace=wrap;html=1;" vertex="1" parent="1">
          <mxGeometry x="1195" y="415" width="120" height="60" as="geometry" />
        </mxCell>
        <mxCell id="voISJOFp0THEIVLKITZV-23" value="no" style="text;html=1;align=center;verticalAlign=middle;resizable=0;points=[];autosize=1;strokeColor=none;fillColor=none;" vertex="1" parent="1">
          <mxGeometry x="1325" y="308.5" width="40" height="30" as="geometry" />
        </mxCell>
        <mxCell id="voISJOFp0THEIVLKITZV-24" value="" style="edgeStyle=orthogonalEdgeStyle;rounded=0;orthogonalLoop=1;jettySize=auto;html=1;" edge="1" parent="1" source="voISJOFp0THEIVLKITZV-19" target="voISJOFp0THEIVLKITZV-25">
          <mxGeometry relative="1" as="geometry" />
        </mxCell>
        <mxCell id="voISJOFp0THEIVLKITZV-25" value="&lt;div&gt;alarm_count++&lt;/div&gt;&lt;div&gt;correct_pass=0&lt;/div&gt;&lt;div&gt;y = PORTF.INTFLAGS&lt;br&gt;&lt;/div&gt;&lt;div&gt;PORTF.INTFLAGS=y&lt;br&gt;&lt;/div&gt;" style="rounded=1;whiteSpace=wrap;html=1;" vertex="1" parent="1">
          <mxGeometry x="1365" y="291.88" width="120" height="83.75" as="geometry" />
        </mxCell>
        <mxCell id="voISJOFp0THEIVLKITZV-34" value="&lt;div&gt;correct_pass==0 or&lt;/div&gt;&lt;div&gt;correct_pass==2&lt;/div&gt;" style="text;html=1;align=center;verticalAlign=middle;resizable=0;points=[];autosize=1;strokeColor=none;fillColor=none;" vertex="1" parent="1">
          <mxGeometry x="827" y="290" width="130" height="40" as="geometry" />
        </mxCell>
        <mxCell id="voISJOFp0THEIVLKITZV-41" value="" style="edgeStyle=orthogonalEdgeStyle;rounded=0;orthogonalLoop=1;jettySize=auto;html=1;" edge="1" parent="1" source="voISJOFp0THEIVLKITZV-35" target="voISJOFp0THEIVLKITZV-37">
          <mxGeometry relative="1" as="geometry" />
        </mxCell>
        <mxCell id="voISJOFp0THEIVLKITZV-35" value="&lt;div&gt;(pin5on == PORTF.FLAGS) or&lt;/div&gt;&lt;div&gt;(pin56on == PORTF.FLAGS)?&lt;/div&gt;" style="rhombus;whiteSpace=wrap;html=1;" vertex="1" parent="1">
          <mxGeometry x="715" y="280" width="110" height="107.5" as="geometry" />
        </mxCell>
        <mxCell id="voISJOFp0THEIVLKITZV-36" value="yes" style="text;html=1;align=center;verticalAlign=middle;resizable=0;points=[];autosize=1;strokeColor=none;fillColor=none;" vertex="1" parent="1">
          <mxGeometry x="770" y="387.5" width="40" height="30" as="geometry" />
        </mxCell>
        <mxCell id="voISJOFp0THEIVLKITZV-37" value="&lt;div&gt;correct_pass++&lt;/div&gt;&lt;div&gt;y = pin5on&lt;/div&gt;&lt;div&gt;PORTF.INTFLAGS=y&lt;br&gt;&lt;/div&gt;" style="rounded=1;whiteSpace=wrap;html=1;" vertex="1" parent="1">
          <mxGeometry x="710" y="440" width="120" height="60" as="geometry" />
        </mxCell>
        <mxCell id="voISJOFp0THEIVLKITZV-38" value="no" style="text;html=1;align=center;verticalAlign=middle;resizable=0;points=[];autosize=1;strokeColor=none;fillColor=none;" vertex="1" parent="1">
          <mxGeometry x="675" y="307.5" width="40" height="30" as="geometry" />
        </mxCell>
        <mxCell id="voISJOFp0THEIVLKITZV-39" style="edgeStyle=orthogonalEdgeStyle;rounded=0;orthogonalLoop=1;jettySize=auto;html=1;" edge="1" parent="1">
          <mxGeometry relative="1" as="geometry">
            <mxPoint x="650" y="333.25" as="targetPoint" />
            <mxPoint x="715" y="333.5" as="sourcePoint" />
          </mxGeometry>
        </mxCell>
        <mxCell id="voISJOFp0THEIVLKITZV-40" value="&lt;div&gt;alarm_count++&lt;br&gt;&lt;/div&gt;&lt;div&gt;correct_pass=0&lt;/div&gt;&lt;div&gt;y = PORTF.INTFLAGS&lt;br&gt;&lt;/div&gt;&lt;div&gt;PORTF.INTFLAGS=y&lt;br&gt;&lt;/div&gt;" style="rounded=1;whiteSpace=wrap;html=1;" vertex="1" parent="1">
          <mxGeometry x="530" y="303.25" width="120" height="76.75" as="geometry" />
        </mxCell>
        <mxCell id="voISJOFp0THEIVLKITZV-42" value="&lt;div&gt;alarm_count=0&lt;/div&gt;&lt;div&gt;alarm_mode=0&lt;/div&gt;&lt;div&gt;timer_mode=0&lt;/div&gt;&lt;div&gt;alarm_brake=0&lt;/div&gt;&lt;div&gt;correct_pass=0&lt;/div&gt;&lt;div&gt;απενεργοποίηση TCA0 single mode&lt;/div&gt;" style="rounded=1;whiteSpace=wrap;html=1;" vertex="1" parent="1">
          <mxGeometry x="942" y="440" width="120" height="110" as="geometry" />
        </mxCell>
        <mxCell id="voISJOFp0THEIVLKITZV-47" style="edgeStyle=orthogonalEdgeStyle;rounded=0;orthogonalLoop=1;jettySize=auto;html=1;strokeColor=#FF0000;" edge="1" parent="1" source="voISJOFp0THEIVLKITZV-44">
          <mxGeometry relative="1" as="geometry">
            <mxPoint x="1070" y="-275" as="targetPoint" />
          </mxGeometry>
        </mxCell>
        <mxCell id="voISJOFp0THEIVLKITZV-44" value="τέλειωσε ο μετρητής" style="rhombus;whiteSpace=wrap;html=1;" vertex="1" parent="1">
          <mxGeometry x="785" y="-320" width="90" height="90" as="geometry" />
        </mxCell>
        <mxCell id="voISJOFp0THEIVLKITZV-48" value="yes" style="text;html=1;align=center;verticalAlign=middle;resizable=0;points=[];autosize=1;strokeColor=none;fillColor=none;" vertex="1" parent="1">
          <mxGeometry x="885" y="-310" width="40" height="30" as="geometry" />
        </mxCell>
        <mxCell id="-8Te-tEJTShSIPjbehUd-9" value="" style="edgeStyle=orthogonalEdgeStyle;rounded=0;orthogonalLoop=1;jettySize=auto;html=1;strokeColor=#FF0000;" edge="1" parent="1" source="-8Te-tEJTShSIPjbehUd-1" target="-8Te-tEJTShSIPjbehUd-8">
          <mxGeometry relative="1" as="geometry" />
        </mxCell>
        <mxCell id="-8Te-tEJTShSIPjbehUd-1" value="ADC result&amp;lt;10?" style="rhombus;whiteSpace=wrap;html=1;shadow=0;fontFamily=Helvetica;fontSize=12;align=center;strokeWidth=1;spacing=6;spacingTop=-4;" vertex="1" parent="1">
          <mxGeometry x="1220" y="-472.5" width="80" height="75" as="geometry" />
        </mxCell>
        <mxCell id="-8Te-tEJTShSIPjbehUd-4" value="ISR ADC_WCOMP interrupt" style="text;html=1;align=center;verticalAlign=middle;resizable=0;points=[];autosize=1;strokeColor=none;fillColor=none;" vertex="1" parent="1">
          <mxGeometry x="1040" y="-430" width="170" height="30" as="geometry" />
        </mxCell>
        <mxCell id="-8Te-tEJTShSIPjbehUd-6" value="yes" style="text;html=1;align=center;verticalAlign=middle;resizable=0;points=[];autosize=1;strokeColor=none;fillColor=none;" vertex="1" parent="1">
          <mxGeometry x="1105" y="-470" width="40" height="30" as="geometry" />
        </mxCell>
        <mxCell id="-8Te-tEJTShSIPjbehUd-12" style="edgeStyle=orthogonalEdgeStyle;rounded=0;orthogonalLoop=1;jettySize=auto;html=1;entryX=0.5;entryY=0;entryDx=0;entryDy=0;" edge="1" parent="1" source="-8Te-tEJTShSIPjbehUd-8" target="voISJOFp0THEIVLKITZV-44">
          <mxGeometry relative="1" as="geometry">
            <Array as="points">
              <mxPoint x="830" y="-435" />
            </Array>
          </mxGeometry>
        </mxCell>
        <mxCell id="-8Te-tEJTShSIPjbehUd-8" value="&lt;div&gt;Led0 is on&lt;/div&gt;&lt;div&gt;alarm_mode=1&lt;/div&gt;&lt;div&gt;alarm_brake=1&lt;/div&gt;&lt;div&gt;ενεργοποίηση TCA0 normal mode&lt;br&gt;&lt;/div&gt;" style="rounded=1;whiteSpace=wrap;html=1;" vertex="1" parent="1">
          <mxGeometry x="915" y="-470" width="120" height="70" as="geometry" />
        </mxCell>
        <mxCell id="EWJB-UFnRw7Wubc8X8zB-1" value="ISR TCA0_COMP0_vect interrupt" style="text;html=1;align=center;verticalAlign=middle;resizable=0;points=[];autosize=1;strokeColor=none;fillColor=none;" vertex="1" parent="1">
          <mxGeometry x="862" y="-280" width="200" height="30" as="geometry" />
        </mxCell>
        <mxCell id="EWJB-UFnRw7Wubc8X8zB-3" style="edgeStyle=orthogonalEdgeStyle;rounded=0;orthogonalLoop=1;jettySize=auto;html=1;entryX=0.5;entryY=0;entryDx=0;entryDy=0;" edge="1" parent="1" source="EWJB-UFnRw7Wubc8X8zB-2" target="hmbJ3uCrHt5LTzU4CBXK-7">
          <mxGeometry relative="1" as="geometry">
            <Array as="points">
              <mxPoint x="1125" y="-40" />
              <mxPoint x="1330" y="-40" />
              <mxPoint x="1330" y="100" />
              <mxPoint x="1181" y="100" />
            </Array>
          </mxGeometry>
        </mxCell>
        <mxCell id="EWJB-UFnRw7Wubc8X8zB-8" style="edgeStyle=orthogonalEdgeStyle;rounded=0;orthogonalLoop=1;jettySize=auto;html=1;" edge="1" parent="1" source="EWJB-UFnRw7Wubc8X8zB-2" target="EWJB-UFnRw7Wubc8X8zB-7">
          <mxGeometry relative="1" as="geometry" />
        </mxCell>
        <mxCell id="EWJB-UFnRw7Wubc8X8zB-2" value="alarm_brake==1?" style="rhombus;whiteSpace=wrap;html=1;" vertex="1" parent="1">
          <mxGeometry x="1070" y="-328.75" width="110" height="107.5" as="geometry" />
        </mxCell>
        <mxCell id="EWJB-UFnRw7Wubc8X8zB-4" value="yes" style="text;html=1;align=center;verticalAlign=middle;resizable=0;points=[];autosize=1;strokeColor=none;fillColor=none;" vertex="1" parent="1">
          <mxGeometry x="1081" y="-200" width="40" height="30" as="geometry" />
        </mxCell>
        <mxCell id="EWJB-UFnRw7Wubc8X8zB-5" value="alarm()" style="text;html=1;align=center;verticalAlign=middle;resizable=0;points=[];autosize=1;strokeColor=none;fillColor=none;" vertex="1" parent="1">
          <mxGeometry x="1121" y="-200" width="60" height="30" as="geometry" />
        </mxCell>
        <mxCell id="EWJB-UFnRw7Wubc8X8zB-11" style="edgeStyle=orthogonalEdgeStyle;rounded=0;orthogonalLoop=1;jettySize=auto;html=1;entryX=0;entryY=0.5;entryDx=0;entryDy=0;" edge="1" parent="1" source="EWJB-UFnRw7Wubc8X8zB-7" target="EWJB-UFnRw7Wubc8X8zB-32">
          <mxGeometry relative="1" as="geometry">
            <mxPoint x="1450" y="-280" as="targetPoint" />
            <Array as="points">
              <mxPoint x="1480" y="-275" />
              <mxPoint x="1480" y="-275" />
            </Array>
          </mxGeometry>
        </mxCell>
        <mxCell id="EWJB-UFnRw7Wubc8X8zB-29" style="edgeStyle=orthogonalEdgeStyle;rounded=0;orthogonalLoop=1;jettySize=auto;html=1;" edge="1" parent="1" source="EWJB-UFnRw7Wubc8X8zB-7">
          <mxGeometry relative="1" as="geometry">
            <mxPoint x="1295" y="-190" as="targetPoint" />
          </mxGeometry>
        </mxCell>
        <mxCell id="EWJB-UFnRw7Wubc8X8zB-7" value="timer_mode==0?" style="rhombus;whiteSpace=wrap;html=1;" vertex="1" parent="1">
          <mxGeometry x="1240" y="-328.75" width="110" height="107.5" as="geometry" />
        </mxCell>
        <mxCell id="EWJB-UFnRw7Wubc8X8zB-9" value="no" style="text;html=1;align=center;verticalAlign=middle;resizable=0;points=[];autosize=1;strokeColor=none;fillColor=none;" vertex="1" parent="1">
          <mxGeometry x="1181" y="-305" width="40" height="30" as="geometry" />
        </mxCell>
        <mxCell id="EWJB-UFnRw7Wubc8X8zB-15" style="edgeStyle=orthogonalEdgeStyle;rounded=0;orthogonalLoop=1;jettySize=auto;html=1;entryX=0;entryY=0.5;entryDx=0;entryDy=0;" edge="1" parent="1" source="EWJB-UFnRw7Wubc8X8zB-12" target="EWJB-UFnRw7Wubc8X8zB-14">
          <mxGeometry relative="1" as="geometry" />
        </mxCell>
        <mxCell id="EWJB-UFnRw7Wubc8X8zB-12" value="&amp;nbsp;ενεργοποίηση TCA ως παλμοευρικού διαμορφωτή" style="rounded=1;whiteSpace=wrap;html=1;" vertex="1" parent="1">
          <mxGeometry x="1300" y="155" width="120" height="60" as="geometry" />
        </mxCell>
        <mxCell id="EWJB-UFnRw7Wubc8X8zB-17" style="edgeStyle=orthogonalEdgeStyle;rounded=0;orthogonalLoop=1;jettySize=auto;html=1;entryX=0.5;entryY=0;entryDx=0;entryDy=0;strokeColor=#FF0000;" edge="1" parent="1" source="EWJB-UFnRw7Wubc8X8zB-14" target="EWJB-UFnRw7Wubc8X8zB-2">
          <mxGeometry relative="1" as="geometry">
            <mxPoint x="1515" y="-255" as="targetPoint" />
            <Array as="points">
              <mxPoint x="1515" y="-370" />
              <mxPoint x="1125" y="-370" />
            </Array>
          </mxGeometry>
        </mxCell>
        <mxCell id="EWJB-UFnRw7Wubc8X8zB-14" value="παρυφή" style="rhombus;whiteSpace=wrap;html=1;" vertex="1" parent="1">
          <mxGeometry x="1470" y="140" width="90" height="90" as="geometry" />
        </mxCell>
        <mxCell id="EWJB-UFnRw7Wubc8X8zB-20" value="ανερχόμενη" style="text;html=1;align=center;verticalAlign=middle;resizable=0;points=[];autosize=1;strokeColor=none;fillColor=none;" vertex="1" parent="1">
          <mxGeometry x="1550" y="155" width="80" height="30" as="geometry" />
        </mxCell>
        <mxCell id="EWJB-UFnRw7Wubc8X8zB-21" value="ISR TCA0_OVF_vect interrupt" style="text;html=1;align=center;verticalAlign=middle;resizable=0;points=[];autosize=1;strokeColor=none;fillColor=none;" vertex="1" parent="1">
          <mxGeometry x="1425" y="230" width="180" height="30" as="geometry" />
        </mxCell>
        <mxCell id="EWJB-UFnRw7Wubc8X8zB-22" style="edgeStyle=orthogonalEdgeStyle;rounded=0;orthogonalLoop=1;jettySize=auto;html=1;strokeColor=#FF0000;entryX=0.75;entryY=0.042;entryDx=0;entryDy=0;entryPerimeter=0;" edge="1" parent="1" target="EWJB-UFnRw7Wubc8X8zB-27">
          <mxGeometry relative="1" as="geometry">
            <mxPoint x="1560" y="185" as="sourcePoint" />
            <mxPoint x="1610" y="300" as="targetPoint" />
            <Array as="points">
              <mxPoint x="1610" y="185" />
            </Array>
          </mxGeometry>
        </mxCell>
        <mxCell id="EWJB-UFnRw7Wubc8X8zB-23" value="ISR TCA0_COMP0_vect interrupt" style="text;html=1;align=center;verticalAlign=middle;resizable=0;points=[];autosize=1;strokeColor=none;fillColor=none;" vertex="1" parent="1">
          <mxGeometry x="1260" y="-370" width="200" height="30" as="geometry" />
        </mxCell>
        <mxCell id="EWJB-UFnRw7Wubc8X8zB-25" value="κατερχόμενη" style="text;html=1;align=center;verticalAlign=middle;resizable=0;points=[];autosize=1;strokeColor=none;fillColor=none;" vertex="1" parent="1">
          <mxGeometry x="1300" y="-400" width="90" height="30" as="geometry" />
        </mxCell>
        <mxCell id="EWJB-UFnRw7Wubc8X8zB-27" value="LED0 is on" style="rounded=1;whiteSpace=wrap;html=1;" vertex="1" parent="1">
          <mxGeometry x="1520" y="307.5" width="120" height="60" as="geometry" />
        </mxCell>
        <mxCell id="EWJB-UFnRw7Wubc8X8zB-30" value="no" style="text;html=1;align=center;verticalAlign=middle;resizable=0;points=[];autosize=1;strokeColor=none;fillColor=none;" vertex="1" parent="1">
          <mxGeometry x="1250" y="-221.25" width="40" height="30" as="geometry" />
        </mxCell>
        <mxCell id="EWJB-UFnRw7Wubc8X8zB-31" value="LED0 is off" style="rounded=1;whiteSpace=wrap;html=1;" vertex="1" parent="1">
          <mxGeometry x="1235" y="-189.5" width="120" height="60" as="geometry" />
        </mxCell>
        <mxCell id="EWJB-UFnRw7Wubc8X8zB-35" style="edgeStyle=orthogonalEdgeStyle;rounded=0;orthogonalLoop=1;jettySize=auto;html=1;entryX=1;entryY=0.5;entryDx=0;entryDy=0;" edge="1" parent="1" source="EWJB-UFnRw7Wubc8X8zB-32" target="-8Te-tEJTShSIPjbehUd-1">
          <mxGeometry relative="1" as="geometry">
            <Array as="points">
              <mxPoint x="1590" y="-435" />
            </Array>
          </mxGeometry>
        </mxCell>
        <mxCell id="EWJB-UFnRw7Wubc8X8zB-32" value="ενεργοποίηση αισθητήρα ADC" style="rounded=1;whiteSpace=wrap;html=1;" vertex="1" parent="1">
          <mxGeometry x="1530" y="-305" width="120" height="60" as="geometry" />
        </mxCell>
        <mxCell id="EWJB-UFnRw7Wubc8X8zB-36" value="yes" style="text;html=1;align=center;verticalAlign=middle;resizable=0;points=[];autosize=1;strokeColor=none;fillColor=none;" vertex="1" parent="1">
          <mxGeometry x="1385" y="-305" width="40" height="30" as="geometry" />
        </mxCell>
      </root>
    </mxGraphModel>
  </diagram>
</mxfile>
